<svg version="1.1" id="Layer_1" xmlns="http://www.w3.org/2000/svg" xmlns:xlink="http://www.w3.org/1999/xlink" x="0px" y="0px"
	 width="100%" viewBox="0 0 192 192" enable-background="new 0 0 192 192" xml:space="preserve">
	 <style>
    path { fill: black; }
    @media (prefers-color-scheme: dark) {
      path { fill: white; }
    }
  </style>
<path  opacity="1.000000" stroke="none" 
	d="
M95.919403,92.438042 
	C80.853790,109.258339 71.096001,128.814178 65.755127,150.683441 
	C64.841949,154.422607 66.395180,156.503311 69.689583,157.530167 
	C85.384712,162.422256 100.782196,162.254166 115.530319,154.252289 
	C131.614700,145.525406 139.882751,130.831100 145.832199,114.322838 
	C154.283157,90.873543 157.524261,66.384010 160.539658,41.851723 
	C161.436401,34.556057 159.187073,32.526539 151.684265,33.476524 
	C132.609085,35.891766 113.560509,38.448311 94.925774,43.437134 
	C80.378334,47.331711 66.146683,52.115467 54.072292,61.333763 
	C33.045815,77.386620 26.891167,107.740623 39.718960,131.400864 
	C42.098167,135.789200 44.156536,140.649155 49.638386,143.085602 
	C55.714378,131.323242 62.323307,120.275925 71.063400,110.556740 
	C82.843445,97.457016 95.127220,87.293304 100.576515,87.008881 
	C99.719940,89.138168 97.852989,90.362549 95.919403,92.438042 
z"/>
</svg>